<svg width="14" height="24" viewBox="0 0 14 24" fill="none" xmlns="http://www.w3.org/2000/svg">
<path d="M6.552 18.208C6.552 17.3547 6.62667 16.608 6.776 15.968C6.92533 15.3067 7.128 14.72 7.384 14.208C7.64 13.696 7.93867 13.2373 8.28 12.832C8.62133 12.4053 8.984 12.0107 9.368 11.648C9.752 11.2853 10.136 10.912 10.52 10.528C10.904 10.1227 11.2453 9.70667 11.544 9.28C11.8427 8.85333 12.0773 8.39467 12.248 7.904C12.44 7.41333 12.536 6.89067 12.536 6.336C12.536 5.54667 12.3867 4.87467 12.088 4.32C11.8107 3.744 11.4267 3.27467 10.936 2.912C10.4667 2.528 9.92267 2.25067 9.304 2.08C8.68533 1.90933 8.04533 1.824 7.384 1.824C6.424 1.824 5.58133 1.984 4.856 2.304C4.13067 2.624 3.52267 3.072 3.032 3.648C2.56267 4.224 2.2 4.90667 1.944 5.696C1.70933 6.464 1.592 7.30667 1.592 8.224H0.376C0.376 7.09333 0.525333 6.05867 0.824 5.12C1.144 4.18133 1.60267 3.38133 2.2 2.72C2.79733 2.03733 3.53333 1.51467 4.408 1.152C5.304 0.789333 6.328 0.608 7.48 0.608C8.33333 0.608 9.13333 0.725333 9.88 0.959999C10.648 1.19467 11.32 1.54667 11.896 2.016C12.472 2.48533 12.92 3.08267 13.24 3.808C13.5813 4.53333 13.752 5.376 13.752 6.336C13.752 7.01867 13.6667 7.62667 13.496 8.16C13.3467 8.672 13.1333 9.14133 12.856 9.568C12.6 9.99467 12.3013 10.3893 11.96 10.752C11.6187 11.0933 11.2667 11.4347 10.904 11.776C10.5413 12.096 10.168 12.4373 9.784 12.8C9.42133 13.1413 9.09067 13.5573 8.792 14.048C8.49333 14.5387 8.248 15.1253 8.056 15.808C7.864 16.4693 7.768 17.2693 7.768 18.208H6.552ZM6.392 20.704H8.024V24H6.392V20.704Z" fill="black"/>
</svg>
